<?xml version="1.0" encoding="UTF-8"?>
<svg width="123px" height="125px" viewBox="0 0 123 125" version="1.1" xmlns="http://www.w3.org/2000/svg" xmlns:xlink="http://www.w3.org/1999/xlink">
    <!-- Generator: Sketch 53.2 (72643) - https://sketchapp.com -->
    <title>flaticon1552285773-svg</title>
    <desc>Created with Sketch.</desc>
    <defs>
        <filter x="-84.1%" y="-84.1%" width="268.1%" height="268.1%" filterUnits="objectBoundingBox" id="filter-1">
            <feOffset dx="0" dy="2" in="SourceAlpha" result="shadowOffsetOuter1"></feOffset>
            <feGaussianBlur stdDeviation="14" in="shadowOffsetOuter1" result="shadowBlurOuter1"></feGaussianBlur>
            <feColorMatrix values="0 0 0 0 1   0 0 0 0 1   0 0 0 0 1  0 0 0 0.5 0" type="matrix" in="shadowBlurOuter1" result="shadowMatrixOuter1"></feColorMatrix>
            <feMerge>
                <feMergeNode in="shadowMatrixOuter1"></feMergeNode>
                <feMergeNode in="SourceGraphic"></feMergeNode>
            </feMerge>
        </filter>
    </defs>
    <g id="H5页面设计" stroke="none" stroke-width="1" fill="none" fill-rule="evenodd">
        <g id="Workshop分享" transform="translate(-161.000000, -298.000000)" fill="#FFFFFF" fill-rule="nonzero">
            <g id="flaticon1552285773-svg" filter="url(#filter-1)" transform="translate(189.000000, 324.000000)">
                <path d="M52.6886855,3 L43,3 L43,5.03575071 L52.6886855,5.03575071 C53.4319035,5.03588853 54.0366072,5.66269743 54.0366072,6.43339122 C54.0366072,6.6574878 53.9868909,6.87138565 53.8887878,7.06902065 L55.6348382,8 C55.8737154,7.5184542 56,6.97668072 56,6.43339122 C56.0001329,4.54014719 54.5146275,3 52.6886855,3 Z" id="Path"></path>
                <rect id="Rectangle" x="37" y="3" width="2" height="2"></rect>
                <rect id="Rectangle" x="13" y="22" width="35" height="2"></rect>
                <rect id="Rectangle" x="13" y="59" width="35" height="2"></rect>
                <polygon id="Path" points="59.3174275 23 57.889902 24.3832426 59.1450857 25.5997384 55 29.616625 56.4273888 31 62 25.5997384"></polygon>
                <polygon id="Rectangle" transform="translate(53.756780, 31.925690) rotate(-45.000000) translate(-53.756780, -31.925690) " points="52.8197985 30.929881 54.7135859 30.9112046 54.6937605 32.9214992 52.7999732 32.9401756"></polygon>
                <path d="M67.3930484,16.3910169 L66.6566862,15.6377999 C64.517543,13.4495556 61.0363986,13.4495556 58.8971207,15.6377999 L58.1773347,16.3740613 L56.7697022,17.8137755 L53.121313,21.5456736 L53.121313,13.7961126 C56.5651272,13.4819505 59.2744659,10.515676 59.2744659,6.91266849 C59.2744659,3.10109262 56.2427666,0 52.5166173,0 L6.75784866,0 C3.03169934,2.08141448e-15 0,3.10095477 0,6.91253064 L0,61.9501699 L5.76260064,61.9501699 L5.76260064,69 L53.1215825,69 L53.1215825,38.9264596 L65.2657647,26.5043063 L66.3293392,25.4162496 L66.6731276,25.0645921 L67.3929136,24.3283307 C68.4292653,23.2682577 69,21.8590086 69,20.3598806 C69,18.8607527 68.4295349,17.4509521 67.3930484,16.3910169 Z M11.5427209,2.03619484 L52.516752,2.03619484 C55.1455006,2.03619484 57.2839699,4.2237499 57.2839699,6.91266849 C57.2839699,9.60158708 55.1453658,11.7890043 52.516752,11.7890043 L11.5427209,11.7890043 C12.7612764,10.5380079 13.5158321,8.8137695 13.5158321,6.91266849 C13.5158321,5.01129178 12.7614112,3.28719126 11.5427209,2.03619484 Z M5.76260064,11.7888664 L5.76260064,11.7888664 L5.76260064,59.9139751 L1.99063082,59.9139751 L1.99063082,6.91253064 C1.99063082,4.22361205 4.12936965,2.03605699 6.75798343,2.03605699 C9.38659721,2.03605699 11.5252013,4.2237499 11.5252013,6.91253064 C11.5252013,9.60144923 9.38646245,11.7888664 6.75798343,11.7888664 L5.76260064,11.7888664 Z M51.1310864,66.9638052 L51.1310864,66.9638052 L7.75309669,66.9638052 L7.75309669,13.8251991 L51.1310864,13.8251991 L51.1309517,23.5817306 L46.81547,27.9958525 L12.356978,27.9958525 L12.356978,30.0320473 L44.8251087,30.0320473 L40.6588131,34.2937062 L12.356978,34.2937062 L12.356978,36.329901 L38.6683171,36.329901 L34.5021563,40.5914221 L12.356978,40.5914221 L12.356978,42.6276169 L32.5116602,42.6276169 L32.1643678,42.9828585 L31.0321974,46.8892758 L12.356978,46.8892758 L12.356978,48.9254706 L30.4421912,48.9254706 L29.2070594,53.1871295 L12.356978,53.1871295 L12.356978,55.2233244 L47.5246095,55.2233244 L47.5246095,53.1871295 L35.6682878,53.1871295 L40.6602955,51.6735272 L43.3465892,48.9257463 L47.5244747,48.9257463 L47.5244747,46.8895515 L45.3372201,46.8895515 L51.1310864,40.963068 L51.1310864,66.9638052 Z M33.525506,45.4492859 L38.2486553,50.2805445 L31.535549,52.3161879 L33.525506,45.4492859 Z M40.1349771,49.3306143 L34.4541795,43.5197876 L58.1773347,19.2536276 L63.8581323,25.0644543 L40.1349771,49.3306143 Z M65.9856855,22.8883408 L65.2658995,23.6246022 L59.5851019,17.8137755 L60.3048879,17.0775141 C61.6680475,15.6831528 63.8860289,15.6831528 65.2493232,17.0775141 L65.9856855,17.8307311 C66.6460396,18.5062003 67.0097735,19.4042985 67.0097735,20.3594671 C67.0096387,21.3147734 66.6459049,22.2128717 65.9856855,22.8883408 Z" id="Shape"></path>
            </g>
        </g>
    </g>
</svg>