<?xml version="1.0" encoding="UTF-8"?>
<svg width="95px" height="39px" viewBox="0 0 95 39" version="1.1" xmlns="http://www.w3.org/2000/svg" xmlns:xlink="http://www.w3.org/1999/xlink">
    <!-- Generator: Sketch 53.2 (72643) - https://sketchapp.com -->
    <title>icon_car_1</title>
    <desc>Created with Sketch.</desc>
    <g id="H5页面设计" stroke="none" stroke-width="1" fill="none" fill-rule="evenodd" opacity="0.206426711">
        <g id="全部车型" transform="translate(-182.000000, -147.000000)" fill="#FFFFFF" fill-rule="nonzero">
            <g id="icon_car_1" transform="translate(182.000000, 147.000000)">
                <polygon id="Path" points="40 15 47 15 47 19 40 19"></polygon>
                <path d="M93.6412214,9.76522813 L82.8859491,8.18904499 C80.9248224,6.95269319 78.8896058,5.8459271 76.7912519,4.87469684 C69.861594,1.65357089 62.3405059,-0.00856192028 54.7324424,3.31650635e-05 L52.8640893,3.31650635e-05 C43.8856855,0.0066445869 35.0509514,2.31868836 27.1652122,6.72525737 L21.7373238,9.76390591 C15.3836343,9.83729351 9.15235404,11.5714917 3.63233653,14.8005515 C1.38902401,16.1208693 0.00386555848,18.5704325 0,21.22363 L0,30.8718014 C0,31.7696439 0.708685721,32.4969097 1.58359037,32.4969097 L6.90002196,32.4969097 C8.62921496,37.5593402 14.0300444,40.2250996 18.9631413,38.4505713 C21.6786962,37.4740518 23.8131287,35.2829985 24.7647004,32.4969097 L67.0667953,32.4969097 C68.7959885,37.5593402 74.196818,40.2250996 79.1299148,38.4505713 C81.8448253,37.4740518 83.9799022,35.2829985 84.9314738,32.4969097 L85.499711,32.4969097 C85.7013642,32.4969097 85.9010847,32.4579018 86.0885643,32.3812083 L91.2168719,30.2694931 C93.5078595,29.338593 95.0083405,27.0629125 94.9999651,24.5353336 L94.9999651,11.3738076 C94.9999651,10.5658816 94.4207756,9.88026843 93.6412214,9.76522813 Z M22.3608423,30.9497972 C21.600721,34.6929063 17.969341,37.1073841 14.2498512,36.3424359 C10.5296621,35.5774876 8.13041988,31.9230478 8.89054126,28.179235 C9.65136187,24.4361259 13.2827418,22.0216481 17.0022317,22.7865964 C20.2028529,23.4445786 22.5006991,26.278476 22.4999998,29.5662755 C22.4999998,30.0307335 22.4531478,30.4944876 22.3608423,30.9497972 Z M51.1996644,30.1935484 L25.356001,30.1935484 C25.356001,24.3569808 21.0176149,19.6255197 15.6651202,19.6255197 C10.3126256,19.6255197 5.97358224,24.3569808 5.97358224,30.1935484 L2.74328859,30.1935484 L2.74328859,21.4960307 C2.74526033,19.8828046 3.53788163,18.3928458 4.82211237,17.5916079 C10.0931101,14.3099719 16.0568303,12.5827952 22.1257075,12.5806452 L51.1996644,12.5806452 L51.1996644,30.1935484 Z M51.25,10.0645161 L26.25,10.0645161 L26.5925054,9.86344313 C34.1847071,5.43052232 42.6179981,2.91749853 51.25,2.51612903 L51.25,10.0645161 Z M55,2.51612903 L55.9752787,2.51616588 C62.9193199,2.50772011 69.8002591,3.95120484 76.25,6.76983897 L73.2414298,10.0645161 L55,10.0645161 L55,2.51612903 Z M83.1074867,30.9497972 C82.3473654,34.6929063 78.7159857,37.1073841 74.995797,36.3424359 C71.2763076,35.5774876 68.8770657,31.9230478 69.6371868,28.179235 C70.3973082,24.4361259 74.0293872,22.0216481 77.7488765,22.7865964 C80.9494976,23.4445786 83.2473434,26.278476 83.2466441,29.5662755 C83.2466441,30.0307335 83.1997921,30.4944876 83.1074867,30.9497972 Z M92.6426014,14.3783342 L87.7808614,14.3783342 L87.7808614,17.8937798 L92.6426014,17.8937798 L92.6426014,25.0991558 C92.6465579,26.3942071 91.9185827,27.5598246 90.8081568,28.0353681 L86.1600617,30.0598241 C86.1600617,29.898211 86.140939,29.7380279 86.131048,29.5764146 C86.1211572,29.4148015 86.1178602,29.2252992 86.1020347,29.0493839 C86.0855496,28.8734685 86.0532392,28.6975533 86.0275226,28.5223531 C86.0011467,28.3464377 85.9820242,28.1705225 85.9497137,28.0110546 C85.9174033,27.8508715 85.8699266,27.673526 85.8277252,27.5061919 C85.7855237,27.339573 85.7532131,27.1708087 85.7044178,27.0070502 C85.6562816,26.8440067 85.5975952,26.6873992 85.5428653,26.5272161 C85.4874758,26.3677482 85.4373617,26.2025596 85.3806534,26.0438066 C85.3239451,25.885769 85.2474551,25.7420333 85.1795371,25.5925769 C85.1116191,25.4431203 85.0450199,25.2793618 84.9691892,25.128475 C84.892699,24.9775883 84.8069772,24.8488699 84.7337842,24.7087096 C84.6612503,24.5678344 84.5722318,24.4076514 84.4799159,24.2639157 C84.3869409,24.1194649 84.3012192,24.0057637 84.2122005,23.8756149 C84.1231817,23.7454662 84.0222939,23.5924341 83.9187685,23.4572798 C83.8152429,23.3221254 83.7183116,23.2162901 83.6174237,23.1054492 C83.5171953,22.9953234 83.4050976,22.8458668 83.2936594,22.7228691 C83.1815617,22.5998714 83.0714422,22.5026174 82.960004,22.3939218 C82.8479065,22.2852262 82.727896,22.1565077 82.6045887,22.0420912 C82.4819406,21.9283898 82.3566551,21.8404323 82.2340071,21.7403179 C82.1106996,21.6402035 81.9873924,21.532938 81.8581502,21.4392597 C81.7282489,21.3462962 81.582522,21.2640593 81.443389,21.1653752 C81.3035967,21.066691 81.1901803,20.9894598 81.0589602,20.9143741 C80.92774,20.8385733 80.7642094,20.7591968 80.6151854,20.6819657 C80.4661616,20.6047346 80.349448,20.5360847 80.2116339,20.4731557 C80.0738198,20.4095116 79.8872102,20.3430069 79.7256578,20.2800778 C79.5634458,20.2164337 79.4579422,20.1670917 79.3201281,20.1198948 C79.1354967,20.0583961 78.9462495,20.0140596 78.7576618,19.9632874 C78.6343544,19.9318227 78.5163223,19.8896318 78.391696,19.8617427 C78.1925579,19.8174063 77.9881445,19.7930929 77.7857094,19.7609133 C77.665699,19.7437508 77.5509639,19.7151467 77.4309534,19.7029898 C77.1065297,19.6679498 76.7827653,19.6486422 76.4425161,19.6486422 C71.0743586,19.654363 66.7243113,24.3718963 66.7190361,30.1935484 L53.75,30.1935484 L53.75,12.6206114 L71.5755009,12.6206114 C72.0054283,12.6206114 72.4175518,12.4353999 72.7208748,12.1057374 L76.9232172,7.5483871 C78.6871062,8.45871313 80.4021999,9.47630432 82.0605854,10.5961554 C82.2518108,10.725589 82.4654557,10.8106863 82.6889916,10.8457263 L92.6426014,12.3867729 L92.6426014,14.3783342 Z" id="Shape"></path>
            </g>
        </g>
    </g>
</svg>