<?xml version="1.0" encoding="UTF-8"?>
<svg width="63px" height="63px" viewBox="0 0 63 63" version="1.1" xmlns="http://www.w3.org/2000/svg" xmlns:xlink="http://www.w3.org/1999/xlink">
    <!-- Generator: Sketch 53.2 (72643) - https://sketchapp.com -->
    <title>icon_coffee1</title>
    <desc>Created with Sketch.</desc>
    <g id="H5页面设计" stroke="none" stroke-width="1" fill="none" fill-rule="evenodd" opacity="0.437779018">
        <g id="名爵咖啡" transform="translate(-216.000000, -129.000000)" fill="#FFFFFF" fill-rule="nonzero">
            <g id="咖啡兑换" transform="translate(216.000000, 129.000000)">
                <g id="icon_coffee1">
                    <path d="M61.7695313,25.7955814 L51.6796875,25.7955814 L51.6796875,23.2178206 C51.6796875,22.5452183 51.1286836,22 50.4492188,22 L9.70372266,22 C9.02425781,22 11.2128831,22.5452183 11.2128831,23.2178206 C11.2128831,23.8904229 10.0256133,24.4356412 10.7050781,24.4356412 L49.21875,24.4356412 L49.21875,33.7721844 C49.21875,41.9739624 44.7943535,49.5967885 37.6501289,53.7444418 L14.0295586,53.7444418 C6.88533398,49.5969103 2.4609375,41.9739624 2.4609375,33.7723062 L2.4609375,24.4357629 L10.7050781,24.4357629 C11.384543,24.4357629 11.9355469,23.8905447 11.9355469,23.2179424 C11.9355469,22.5453401 11.384543,22.0001218 10.7050781,22.0001218 L1.23046875,22.0001218 C0.551003906,22.0001218 0,22.5453401 0,23.2179424 L0,33.7723062 C0,38.3756679 1.25015625,42.8893981 3.61536328,46.8252725 C5.21041992,49.479756 7.28006836,51.823817 9.70372266,53.7445636 L1.23046875,53.7445636 C0.551003906,53.7445636 0,54.2897819 0,54.9623842 C0,59.3943986 3.64304883,63 8.12109375,63 L46.5117188,63 C50.9897637,63 54.6328125,59.3943986 54.6328125,54.9623842 C54.6328125,54.2897819 54.0818086,53.7445636 53.4023438,53.7445636 L41.9759648,53.7445636 C44.2066816,51.9767753 46.1364258,49.8496081 47.6732813,47.45245 L51.1465254,47.45245 C57.6825293,47.45245 63,42.1896384 63,35.7208191 L63,27.013402 C63,26.3407997 62.4491191,25.7955814 61.7695313,25.7955814 Z M52.0371387,56.1802048 C51.4738301,58.6855053 49.2102598,60.5643588 46.5117188,60.5643588 L8.12109375,60.5643588 C5.42255273,60.5643588 3.15910547,58.6855053 2.59567383,56.1802048 L13.699916,56.1802048 L37.9797715,56.1802048 L52.0371387,56.1802048 Z M51.6796875,33.7723062 L51.6796875,33.1025048 L55.6171875,33.1025048 L55.6171875,35.7208191 C55.6171875,38.1606008 53.6116465,40.1455266 51.1465254,40.1455266 L50.8670859,40.1455266 C51.4041855,38.0745009 51.6796875,35.9333288 51.6796875,33.7723062 Z M60.5390625,35.7208191 C60.5390625,40.8466259 56.3255684,45.0168089 51.1465254,45.0168089 L49.0522676,45.0168089 C49.4451563,44.2226681 49.7960859,43.4096511 50.1027188,42.5811677 L51.1465254,42.5811677 C54.9687305,42.5811677 58.078125,39.5036134 58.078125,35.7208191 L58.078125,31.8846843 C58.078125,31.212082 57.5271211,30.6668637 56.8476563,30.6668637 L51.6796875,30.6668637 L51.6796875,28.2312225 L60.5390625,28.2312225 L60.5390625,35.7208191 Z" id="Shape"></path>
                    <path d="M27.3365746,6.64120026 L26.6078808,5.85724028 C25.5381587,4.70668031 25.5366181,3.09832035 26.6040993,1.94608038 C27.0850401,1.4269604 26.983642,0.67216042 26.3777743,0.260200431 C25.7717665,-0.151999558 24.8909755,-0.0649995601 24.4100347,0.454120426 C22.5274472,2.48644037 22.5302483,5.32312029 24.4168973,7.35256024 L25.1455912,8.13652022 C26.5434565,9.64012017 26.5455573,11.7419201 25.1506331,13.2478001 L24.4038724,14.0539601 C23.9229317,14.57308 24.0243298,15.32788 24.6301975,15.73984 C24.8877543,15.91492 25.1948897,16 25.4999244,16 C25.9125194,16 26.3213331,15.84448 26.597937,15.54592 L27.3446977,14.73976 C29.5547283,12.3539201 29.551507,9.02368019 27.3365746,6.64120026 Z" id="Path"></path>
                    <path d="M33.3366759,9.64120026 L32.6079651,8.85736028 C31.538218,7.70668031 31.5366774,6.09832035 32.6041835,4.94608038 C33.0851355,4.4269604 32.9837351,3.67216042 32.3778532,3.26020043 C31.7718313,2.84800044 30.8910197,2.93500044 30.4100677,3.45412043 C28.5274362,5.48644037 28.5302373,8.32312029 30.4169304,10.3526802 L31.1456413,11.1366402 C32.5433993,12.6403602 32.5455001,14.7422801 31.1505433,16.2480401 L30.4039052,17.0540801 C29.9229532,17.5732 30.0243537,18.328 30.6302356,18.73996 C30.8877984,18.91504 31.194941,19 31.4999828,19 C31.9125875,19 32.3215507,18.84436 32.5980211,18.54592 L33.3445191,17.73988 C35.5547413,15.3541601 35.5515201,12.0239202 33.3366759,9.64120026 Z" id="Path"></path>
                    <path d="M20.3366681,9.64119712 L19.6079615,8.85735688 C18.5382207,7.70679653 18.5366801,6.09831603 19.6040399,4.94607568 C20.0849891,4.42695552 19.9835892,3.67215529 19.3777109,3.26007516 C18.7716926,2.84799503 17.8908861,2.93511506 17.409937,3.45399522 C15.5274565,5.48631584 15.5302576,8.32311672 17.4169397,10.3525573 L18.1456463,11.1365176 C19.5433961,12.640238 19.5454969,14.7421587 18.1506883,16.2477992 L17.4039146,17.0538394 C16.9229654,17.5729596 17.0242252,18.3277598 17.6301036,18.7398399 C17.8876649,18.91492 18.1946656,19 18.4998456,19 C18.9124479,19 19.3212687,18.84448 19.5977375,18.5460399 L20.3446513,17.7398796 C22.5547205,15.3541589 22.5514993,12.0239179 20.3366681,9.64119712 Z" id="Path"></path>
                </g>
            </g>
        </g>
    </g>
</svg>