<?xml version="1.0" encoding="UTF-8"?>
<svg width="56px" height="37px" viewBox="0 0 56 37" version="1.1" xmlns="http://www.w3.org/2000/svg" xmlns:xlink="http://www.w3.org/1999/xlink">
    <!-- Generator: Sketch 53.2 (72643) - https://sketchapp.com -->
    <title>icon_game</title>
    <desc>Created with Sketch.</desc>
    <g id="H5页面设计" stroke="none" stroke-width="1" fill="none" fill-rule="evenodd" opacity="0.9">
        <g id="主菜单+平面规划图" transform="translate(-418.000000, -1027.000000)" fill="#FFFFFF" fill-rule="nonzero">
            <g id="icon_game" transform="translate(418.000000, 1027.000000)">
                <path d="M55.9699005,25.5884145 C55.8303997,22.360733 55.2723967,18.7822166 54.4353922,15.4142011 C53.5983877,12.1865196 52.5521321,9.1693391 51.2966253,6.85382847 C46.414099,-1.77671115 41.1130705,-0.443538366 34.7657864,1.24046936 C32.7430255,1.73163829 30.5807639,2.2929742 28.3487519,2.50347516 L27.6512481,2.50347516 C25.4192361,2.2929742 23.2569745,1.73163829 21.2342136,1.24046936 C14.8869295,-0.373371377 9.58590095,-1.77671115 4.70337469,6.92399546 C3.44786793,9.23950608 2.33186193,12.2566866 1.5646078,15.4843681 C0.727603301,18.8523835 0.1696003,22.4309 0.0300995494,25.6585815 C-0.109401201,29.2370979 0.239350675,31.8332765 1.0066048,33.6576182 C1.77385893,35.3416259 2.88986493,36.3941307 4.35462281,36.8151327 C5.67987994,37.1659676 7.21438819,37.0256336 8.81864682,36.3239638 C11.5389115,35.2012919 14.6776783,32.8156143 17.7466948,29.9387678 C19.9089565,27.8337581 23.9544782,26.7812533 28,26.7812533 C32.0455218,26.7812533 36.0910435,27.8337581 38.2533052,29.9387678 C41.3223217,32.8156143 44.4610885,35.2012919 47.1813532,36.3239638 C48.7856118,36.9554666 50.3201201,37.1659676 51.6453772,36.8151327 C53.0403847,36.3941307 54.2261411,35.4117929 54.9933952,33.5874512 C55.7606493,31.8332765 56.1094012,29.2370979 55.9699005,25.5884145 Z M52.6218824,32.6051133 C52.2033802,33.5874512 51.6453772,34.1487871 50.9478734,34.3592881 C50.1806193,34.569789 49.2041141,34.4294551 48.0881081,34.0084531 C45.6468449,33.0261153 42.7870795,30.8509386 39.9970645,28.1845931 C37.3465503,25.5182475 32.6732751,24.1850747 28,24.1850747 C23.3267249,24.1850747 18.6534497,25.5182475 15.9331851,28.0442591 C13.0734197,30.7106046 10.2136543,32.9559483 7.84214157,33.8681191 C6.72613557,34.2891211 5.74963031,34.499622 4.98237619,34.2189541 C4.28487244,34.0084531 3.72686943,33.4471172 3.30836718,32.4647794 C2.75036418,31.1316066 2.47136268,28.9564299 2.61086343,25.7287484 C2.75036418,22.7115679 3.23861681,19.2733855 4.07562131,16.045704 C4.84287544,13.0285235 5.81938069,10.2218439 7.00513707,8.11683426 C10.8414077,1.17030238 15.3054317,2.2929742 20.6064602,3.69631397 C22.7687219,4.25764988 25.0007339,4.81898579 27.441997,5.02948676 C27.5117474,5.02948676 27.5117474,5.02948676 27.5814977,5.02948676 L28.3487519,5.02948676 C28.4185023,5.02948676 28.4185023,5.02948676 28.4882526,5.02948676 C30.9992661,4.81898579 33.2312781,4.25764988 35.3935398,3.69631397 C40.6945683,2.36314118 45.1585923,1.17030238 48.9948629,8.11683426 C50.1806193,10.2218439 51.1571246,12.9583565 51.9243787,16.045704 C52.6916328,19.2733855 53.2496358,22.6414009 53.3891366,25.7287484 C53.5286373,28.9564299 53.2496358,31.1316066 52.6218824,32.6051133 Z" id="Shape"></path>
                <path d="M21.7802691,11.7297297 C21.0627803,11.1216216 20.2017937,10.6486486 19.1973094,10.5810811 C19.1255605,9.7027027 18.6950673,8.82432432 18.0493274,8.21621622 L17.9775785,8.14864865 C17.1883408,7.40540541 16.1838565,7 15.0358744,7 C13.8878924,7 12.8116592,7.47297297 12.0941704,8.14864865 C11.4484305,8.75675676 10.9461883,9.63513514 10.8744395,10.5810811 C9.86995516,10.6486486 9.00896861,11.0540541 8.29147982,11.6621622 L8.21973094,11.7297297 C7.43049327,12.472973 7,13.4189189 7,14.5 C7,15.5810811 7.50224215,16.5945946 8.21973094,17.2702703 C8.93721973,17.9459459 9.79820628,18.3513514 10.8744395,18.4189189 C10.9461883,19.3648649 11.3766816,20.2432432 12.0941704,20.8513514 C12.8834081,21.5945946 13.8878924,22 15.0358744,22 C16.1838565,22 17.2600897,21.527027 17.9775785,20.8513514 C18.6233184,20.1756757 19.1255605,19.3648649 19.1973094,18.4189189 C20.2017937,18.3513514 21.1345291,17.9459459 21.7802691,17.2702703 C22.5695067,16.527027 23,15.5810811 23,14.5 C23,13.4189189 22.4977578,12.4054054 21.7802691,11.7297297 Z M19.9865471,15.5135135 C19.6995516,15.7837838 19.3408072,15.9189189 18.9103139,15.9189189 L17.9058296,15.9189189 C17.1883408,15.9189189 16.5426009,16.4594595 16.5426009,17.2027027 L16.5426009,18.0810811 C16.5426009,18.4864865 16.3991031,18.8243243 16.1121076,19.0945946 C15.8251121,19.3648649 15.4663677,19.5 15.0358744,19.5 C14.6053812,19.5 14.2466368,19.3648649 13.9596413,19.0945946 C13.6726457,18.8243243 13.529148,18.4864865 13.529148,18.0810811 L13.529148,17.1351351 C13.529148,16.4594595 12.955157,15.8513514 12.1659193,15.8513514 L11.161435,15.8513514 C10.7309417,15.8513514 10.3721973,15.7162162 10.0852018,15.4459459 C9.86995516,15.2432432 9.65470852,14.9054054 9.65470852,14.5 C9.65470852,14.0945946 9.79820628,13.7567568 10.0852018,13.4864865 C10.0852018,13.4864865 10.0852018,13.4864865 10.1569507,13.4189189 C10.4439462,13.2162162 10.8026906,13.0810811 11.161435,13.0810811 L12.1659193,13.0810811 C12.8834081,13.0810811 13.529148,12.5405405 13.529148,11.7972973 L13.529148,10.8513514 C13.529148,10.4459459 13.6726457,10.1081081 13.9596413,9.83783784 C14.2466368,9.56756757 14.6053812,9.43243243 15.0358744,9.43243243 C15.4663677,9.43243243 15.8251121,9.56756757 16.1121076,9.83783784 C16.1121076,9.83783784 16.1121076,9.83783784 16.1838565,9.90540541 C16.3991031,10.1756757 16.5426009,10.5135135 16.5426009,10.8513514 L16.5426009,11.7972973 C16.5426009,12.472973 17.1165919,13.0810811 17.9058296,13.0810811 L18.9103139,13.0810811 C19.3408072,13.0810811 19.6995516,13.2162162 19.9865471,13.4864865 C20.2735426,13.7567568 20.4170404,14.0945946 20.4170404,14.5 C20.4170404,14.9054054 20.2735426,15.2432432 19.9865471,15.5135135 Z" id="Shape"></path>
                <circle id="Oval" cx="39.5" cy="9.5" r="2.5"></circle>
                <circle id="Oval" cx="39.5" cy="19.5" r="2.5"></circle>
                <circle id="Oval" cx="34.5" cy="14.5" r="2.5"></circle>
                <circle id="Oval" cx="45.5" cy="14.5" r="2.5"></circle>
            </g>
        </g>
    </g>
</svg>