<?xml version="1.0" encoding="UTF-8"?>
<svg width="45px" height="67px" viewBox="0 0 45 67" version="1.1" xmlns="http://www.w3.org/2000/svg" xmlns:xlink="http://www.w3.org/1999/xlink">
    <!-- Generator: Sketch 53.2 (72643) - https://sketchapp.com -->
    <title>icon_pin</title>
    <desc>Created with Sketch.</desc>
    <g id="H5页面设计" stroke="none" stroke-width="1" fill="none" fill-rule="evenodd" opacity="0.206426711">
        <g id="主菜单+平面规划图" transform="translate(-185.000000, -135.000000)" fill="#FFFFFF" fill-rule="nonzero">
            <g id="Group" transform="translate(185.000000, 135.000000)">
                <g id="icon_pin" transform="translate(0.000000, -0.000000)">
                    <path d="M23,16 C18.5897143,16 15,19.8140714 15,24.5 C15,29.1859286 18.5897143,33 23,33 C27.4102857,33 31,29.1859286 31,24.5 C31,19.8140714 27.4102857,16 23,16 Z M23,30.5714286 C19.8491429,30.5714286 17.2857143,27.8477857 17.2857143,24.5 C17.2857143,21.1522143 19.8491429,18.4285714 23,18.4285714 C26.1508571,18.4285714 28.7142857,21.1522143 28.7142857,24.5 C28.7142857,27.8477857 26.1508571,30.5714286 23,30.5714286 Z" id="Shape"></path>
                    <path d="M38.4131986,6.87289296 C34.1632459,2.44105776 28.5122872,0 22.5022768,0 C16.4910929,0 10.8413076,2.44105776 6.59135491,6.87289296 C-1.27375638,15.0733787 -2.25117511,30.5028216 4.47459215,39.8510327 L22.5022768,67 L40.5029738,39.888964 C47.2557286,30.5028216 46.2783099,15.0733787 38.4131986,6.87289296 Z M38.5997647,38.4585898 L22.5022768,62.7003123 L6.37897461,38.4206585 C0.278614531,29.9387476 1.15277654,16.0045291 8.25167603,8.60304619 C12.0580942,4.63372719 17.1188469,2.4471757 22.5022768,2.4471757 C27.8857067,2.4471757 32.9464593,4.63372719 36.7540509,8.60304619 C43.8529503,16.0045291 44.7271124,29.9387476 38.5997647,38.4585898 Z" id="Shape"></path>
                </g>
            </g>
        </g>
    </g>
</svg>