<?xml version="1.0" encoding="UTF-8"?>
<svg width="45px" height="45px" viewBox="0 0 45 45" version="1.1" xmlns="http://www.w3.org/2000/svg" xmlns:xlink="http://www.w3.org/1999/xlink">
    <!-- Generator: Sketch 53.2 (72643) - https://sketchapp.com -->
    <title>icon_MG</title>
    <desc>Created with Sketch.</desc>
    <g id="H5页面设计" stroke="none" stroke-width="1" fill="none" fill-rule="evenodd" opacity="0.9">
        <g id="主菜单+平面规划图" transform="translate(-550.000000, -1020.000000)" stroke="#FFFFFF">
            <g id="icon_MG" transform="translate(551.000000, 1021.000000)">
                <polygon id="Path-14" stroke-width="1.5" points="5 15.5053149 5 29.008064 8.88194947 33.6568625 8.88194947 23.9463138 10.7490001 27.7373484 14.2540192 18.2603609 14.4958202 38.6529801 19 39 19 5 14.4958202 5.26954191 10.1607516 16.8494456 7.51445488 12.0894415"></polygon>
                <polygon id="Path-16" stroke-width="1.5" points="23 5 23 39 28.8319345 38.6380962 38.6075742 28.6483266 39 21.0689386 32.1342886 21.0689386 32.1342886 25.1883219 34.9602866 25.1883219 34.9602866 26.4328634 28.1922211 33.5630828 28.1922211 10.3050007 34.9602866 17.3628393 34.9602866 18.7364428 39 18.7364428 39 15.3278183 28.8319345 5.28218306"></polygon>
                <polygon id="Path-15" stroke-width="2" points="0 12.8728033 0 30.3129707 12.0809819 43 29.9960993 43 42.3877504 30.3129707 42.3877504 12.8728033 29.9960993 0 12.0809819 0"></polygon>
            </g>
        </g>
    </g>
</svg>