<?xml version="1.0" encoding="UTF-8"?>
<svg width="51px" height="53px" viewBox="0 0 51 53" version="1.1" xmlns="http://www.w3.org/2000/svg" xmlns:xlink="http://www.w3.org/1999/xlink">
    <!-- Generator: Sketch 53.2 (72643) - https://sketchapp.com -->
    <title>icon_profile</title>
    <desc>Created with Sketch.</desc>
    <g id="Symbols" stroke="none" stroke-width="1" fill="none" fill-rule="evenodd" opacity="0.384230841">
        <g id="填写资料" transform="translate(-7.000000, -7.000000)" fill="#FFFFFF" fill-rule="nonzero">
            <g id="icon_profile" transform="translate(7.000000, 6.500000)">
                <path d="M41.009434,15.8979492 C41.5564245,15.8979492 42,15.4345098 42,14.862793 L42,3.60546875 C42,1.89311328 40.6668962,0.5 39.0283019,0.5 L2.97169811,0.5 C1.33310377,0.5 0,1.89311328 0,3.60546875 L0,50.3945312 C0,52.1068867 1.33310377,53.5 2.97169811,53.5 L39.0283019,53.5 C40.6668962,53.5 42,52.1068867 42,50.3945312 L42,42.7683281 C42,42.1966113 41.5564245,41.7331719 41.009434,41.7331719 C40.4624434,41.7331719 40.0188679,42.1966113 40.0188679,42.7683281 L40.0188679,50.3945312 C40.0188679,50.9653164 39.5745,51.4296875 39.0283019,51.4296875 L2.97169811,51.4296875 C2.4255,51.4296875 1.98113208,50.9653164 1.98113208,50.3945312 L1.98113208,3.60546875 C1.98113208,3.03468359 2.4255,2.5703125 2.97169811,2.5703125 L39.0283019,2.5703125 C39.5745,2.5703125 40.0188679,3.03468359 40.0188679,3.60546875 L40.0188679,14.862793 C40.0188679,15.4345098 40.4624434,15.8979492 41.009434,15.8979492 Z" id="Path"></path>
                <path d="M21,7.5 C16.0373804,7.5 12,11.7617025 12,17.0000516 C12,19.7175827 13.0868478,22.1719004 14.825413,23.9050402 C14.8579891,23.9418013 14.8926196,23.9766004 14.9304783,24.0083017 C16.5319891,25.5550546 18.6633261,26.5 20.9999022,26.5 C23.3364783,26.5 25.4678152,25.5549514 27.0693261,24.0083017 C27.1071848,23.9766004 27.1418152,23.9416981 27.1743913,23.9050402 C28.9131522,22.1719004 30,19.7175827 30,17.0000516 C30,11.7617025 25.9626196,7.5 21,7.5 Z M21,24.4348746 C19.4025978,24.4348746 17.9283587,23.8698281 16.7454457,22.920236 C17.6052391,21.3109066 19.2096848,20.3044174 21,20.3044174 C22.7903152,20.3044174 24.3947609,21.3109066 25.2545543,22.920236 C24.0715435,23.8698281 22.5974022,24.4348746 21,24.4348746 Z M19.4347826,16.5870059 L19.4347826,15.9158066 C19.4347826,15.0048343 20.1369783,14.2636237 21,14.2636237 C21.8630217,14.2636237 22.5652174,15.0048343 22.5652174,15.9158066 L22.5652174,16.5870059 C22.5652174,17.4979782 21.8630217,18.2391888 21,18.2391888 C20.1369783,18.2391888 19.4347826,17.4979782 19.4347826,16.5870059 Z M26.6680435,21.4075593 C25.9465761,20.2780858 24.9466957,19.3996408 23.7857935,18.8573117 C24.2465543,18.2287594 24.5217391,17.441391 24.5217391,16.5870059 L24.5217391,15.9158066 C24.5217391,13.8659639 22.9419457,12.1983951 21,12.1983951 C19.0580543,12.1983951 17.4782609,13.8659639 17.4782609,15.9158066 L17.4782609,16.5870059 C17.4782609,17.441391 17.7534457,18.2287594 18.2142065,18.8573117 C17.0533043,19.3996408 16.0534239,20.2780858 15.3319565,21.4075593 C14.46825,20.1732754 13.9565217,18.6488269 13.9565217,17.0000516 C13.9565217,12.9004696 17.1162065,9.56522862 21,9.56522862 C24.8837935,9.56522862 28.0434783,12.9004696 28.0434783,17.0000516 C28.0434783,18.6488269 27.53175,20.1732754 26.6680435,21.4075593 Z" id="Shape"></path>
                <path d="M26.0540541,46.5 L20.9459459,46.5 C20.4235946,46.5 20,46.9477 20,47.5 C20,48.0523 20.4235946,48.5 20.9459459,48.5 L26.0540541,48.5 C26.5764054,48.5 27,48.0523 27,47.5 C27,46.9477 26.5764054,46.5 26.0540541,46.5 Z" id="Path"></path>
                <path d="M27.0123457,40.5 L12.9876543,40.5 C12.4422716,40.5 12,40.9477 12,41.5 C12,42.0523 12.4422716,42.5 12.9876543,42.5 L27.0123457,42.5 C27.5577284,42.5 28,42.0523 28,41.5 C28,40.9477 27.5577284,40.5 27.0123457,40.5 Z" id="Path"></path>
                <path d="M27.0123457,34.5 L12.9876543,34.5 C12.4422716,34.5 12,34.9477 12,35.5 C12,36.0523 12.4422716,36.5 12.9876543,36.5 L27.0123457,36.5 C27.5577284,36.5 28,36.0523 28,35.5 C28,34.9477 27.5577284,34.5 27.0123457,34.5 Z" id="Path"></path>
                <path d="M9.70704648,29.793 C9.52123938,29.607 9.26336832,29.5 8.99950025,29.5 C8.73653173,29.5 8.47866067,29.607 8.29285357,29.793 C8.10694653,29.979 8,30.237 8,30.5 C8,30.763 8.10684658,31.021 8.29285357,31.207 C8.47976012,31.393 8.73653173,31.5 8.99950025,31.5 C9.26336832,31.5 9.52023988,31.393 9.70704648,31.207 C9.89295352,31.021 10,30.763 10,30.5 C10,30.237 9.89305347,29.979 9.70704648,29.793 Z" id="Path"></path>
                <path d="M9.70704648,34.793 C9.52023988,34.607 9.26336832,34.5 8.99950025,34.5 C8.73653173,34.5 8.47976012,34.607 8.29285357,34.793 C8.10694653,34.979 8,35.237 8,35.5 C8,35.763 8.10684658,36.021 8.29285357,36.207 C8.47976012,36.393 8.73653173,36.5 8.99950025,36.5 C9.26336832,36.5 9.52023988,36.393 9.70704648,36.207 C9.89295352,36.021 10,35.763 10,35.5 C10,35.237 9.89305347,34.979 9.70704648,34.793 Z" id="Path"></path>
                <path d="M9.70704648,40.793 C9.52023988,40.607 9.26336832,40.5 8.99950025,40.5 C8.73653173,40.5 8.47976012,40.607 8.29285357,40.793 C8.10694653,40.979 8,41.237 8,41.5 C8,41.763 8.10684658,42.021 8.29285357,42.207 C8.47866067,42.393 8.73653173,42.5 8.99950025,42.5 C9.26336832,42.5 9.52123938,42.393 9.70704648,42.207 C9.89295352,42.021 10,41.763 10,41.5 C10,41.237 9.89305347,40.979 9.70704648,40.793 Z" id="Path"></path>
                <path d="M27.0123457,29.5 L12.9876543,29.5 C12.4422716,29.5 12,29.9477 12,30.5 C12,31.0523 12.4422716,31.5 12.9876543,31.5 L27.0123457,31.5 C27.5577284,31.5 28,31.0523 28,30.5 C28,29.9477 27.5577284,29.5 27.0123457,29.5 Z" id="Path"></path>
                <path d="M48.9439981,14.0927193 C47.9924532,13.5037611 46.8839009,13.3473075 45.8223627,13.6521294 C44.7610203,13.9570563 43.8738259,14.6868227 43.324545,15.7069207 L30.9988305,38.5935517 C30.9313457,38.7190295 30.8886413,38.8581576 30.8736555,39.0021159 L30.0060503,47.3334237 C29.9629541,47.747973 30.1527733,48.1506571 30.4897074,48.3592968 C30.6418175,48.4533789 30.8107742,48.5 30.9793392,48.5 C31.1842422,48.5 31.3883615,48.4312234 31.5602567,48.2954554 L37.8566143,43.3242233 C37.9654322,43.2383314 38.056522,43.1292339 38.1240067,43.0037561 L50.4496233,20.1171251 C51.5838374,18.0111977 50.9084022,15.3086467 48.9439981,14.0927193 Z M32.201215,45.1811902 L32.654313,40.8307321 L35.4890647,42.5853217 L32.201215,45.1811902 Z M36.9173126,41.0443069 L33.1850821,38.7342548 L43.0761541,20.3682908 L46.8083846,22.6783429 L36.9173126,41.0443069 Z M48.7531994,19.0669965 L47.7877462,20.8597019 L44.0555157,18.5496498 L45.0209689,16.7569444 C45.3087341,16.2225874 45.7733897,15.8403787 46.3293309,15.6806701 C46.8854681,15.5208565 47.4660917,15.6029684 47.9644407,15.9114653 C48.4628876,16.2199623 48.8194109,16.7180935 48.9683867,17.314087 C49.1173625,17.9100804 49.0409646,18.5326394 48.7531994,19.0669965 Z" id="Shape"></path>
            </g>
        </g>
    </g>
</svg>