<?xml version="1.0" encoding="UTF-8"?>
<svg width="52px" height="52px" viewBox="0 0 52 52" version="1.1" xmlns="http://www.w3.org/2000/svg" xmlns:xlink="http://www.w3.org/1999/xlink">
    <!-- Generator: Sketch 53.2 (72643) - https://sketchapp.com -->
    <title>Group 3</title>
    <desc>Created with Sketch.</desc>
    <g id="H5页面设计" stroke="none" stroke-width="1" fill="none" fill-rule="evenodd">
        <g id="核销失败" transform="translate(-453.000000, -579.000000)" fill-rule="nonzero">
            <g id="Group-3" transform="translate(453.000000, 579.000000)">
                <path d="M25.5,2 C38.4797286,2 49,12.5202714 49,25.5 C49,38.4797286 38.4797286,49 25.5,49 C12.5202714,49 2,38.4797286 2,25.5 C2,12.5202714 12.5202714,2 25.5,2 Z" id="Path" fill="#FD3C65"></path>
                <path d="M26,52 C40.3363174,52 52,40.3367791 52,25.99987 C52,11.6629608 40.3365774,0 26,0 C11.6634226,0 0,11.6632209 0,26.00013 C0,40.3370392 11.6636826,52 26,52 Z M26,5.19992198 C37.4691579,5.19992198 46.799844,14.5309148 46.799844,25.99987 C46.799844,37.4688252 37.4688978,46.799818 26,46.799818 C14.5311022,46.799818 5.20015604,37.4688252 5.20015604,25.99987 C5.20015604,14.5309148 14.5311022,5.19992198 26,5.19992198 Z" id="Shape" fill="#000000"></path>
                <path d="M16.7690451,36.2309765 C17.2818294,36.7434838 17.9534639,36.9997374 18.6250985,36.9997374 C19.296733,36.9997374 19.9688926,36.7432212 20.4811518,36.2309765 L26.5001313,30.2124289 L32.5191108,36.231239 C33.0318951,36.7437463 33.7035296,37 34.3751641,37 C35.0467986,37 35.7189583,36.7434838 36.2312174,36.231239 C37.2562609,35.2062244 37.2562609,33.5439889 36.2312174,32.5187117 L30.2122379,26.4999015 L36.2312174,20.4810914 C37.2562609,19.4560767 37.2562609,17.7938412 36.2312174,16.768564 C35.206174,15.743812 33.5438917,15.743812 32.5185857,16.768564 L26.4998687,22.7873742 L20.4814143,16.7688266 C19.4563709,15.7440745 17.7940886,15.7440745 16.7687826,16.7688266 C15.7437391,17.7938412 15.7437391,19.4560767 16.7687826,20.4813539 L22.7877621,26.5001641 L16.7687826,32.5187117 C15.7440017,33.5437263 15.7440017,35.2059619 16.7690451,36.2309765 Z" id="Path" fill="#000000"></path>
            </g>
        </g>
    </g>
</svg>