<?xml version="1.0" encoding="UTF-8"?>
<svg width="52px" height="52px" viewBox="0 0 52 52" version="1.1" xmlns="http://www.w3.org/2000/svg" xmlns:xlink="http://www.w3.org/1999/xlink">
    <!-- Generator: Sketch 53.2 (72643) - https://sketchapp.com -->
    <title>Group 2</title>
    <desc>Created with Sketch.</desc>
    <g id="H5页面设计" stroke="none" stroke-width="1" fill="none" fill-rule="evenodd">
        <g id="核销成功" transform="translate(-453.000000, -579.000000)" fill-rule="nonzero">
            <g id="Group-2" transform="translate(453.000000, 579.000000)">
                <path d="M25.5,2 C38.4797286,2 49,12.5202714 49,25.5 C49,38.4797286 38.4797286,49 25.5,49 C12.5202714,49 2,38.4797286 2,25.4997388 C2,12.5197491 12.5200102,2 25.5,2 Z" id="Path" fill="#4DBBEB"></path>
                <path d="M34.5620349,18.7530864 L23.4004161,29.7916667 L17.4387453,23.8958333 C16.4234616,22.8919753 14.7770065,22.8919753 13.7614628,23.8958333 C12.7461791,24.8999486 12.7461791,26.5282922 13.7614628,27.5326646 L21.5617748,35.2469136 C22.0696767,35.7489712 22.7349164,36 23.400156,36 C24.0653957,36 24.7311555,35.748714 25.2385372,35.2469136 L38.2385372,22.3899177 C39.2538209,21.3858025 39.2538209,19.7574588 38.2385372,18.7530864 C37.2235136,17.7489712 35.5773186,17.7489712 34.5620349,18.7530864 Z" id="Path" fill="#000000"></path>
                <path d="M26,0 C11.6634226,0 0,11.6632209 0,25.99987 C0,40.3365191 11.6634226,52 26,52 C40.3365774,52 52,40.3367791 52,25.99987 C52,11.6629608 40.3363174,0 26,0 Z M26,46.800078 C14.5308421,46.800078 5.20015604,37.4690852 5.20015604,26.00013 C5.20015604,14.5311748 14.5311022,5.20018204 26,5.20018204 C37.4688978,5.20018204 46.799844,14.5311748 46.799844,26.00013 C46.799844,37.4690852 37.4688978,46.800078 26,46.800078 Z" id="Shape" fill="#000000"></path>
            </g>
        </g>
    </g>
</svg>